<svg xmlns="http://www.w3.org/2000/svg" viewBox="0 0 128 128">
  <defs>
    <radialGradient id="bombBody" cx="34%" cy="28%" r="72%">
      <stop offset="0" stop-color="#8e99a6"/>
      <stop offset=".36" stop-color="#343b43"/>
      <stop offset=".8" stop-color="#11151a"/>
      <stop offset="1" stop-color="#030507"/>
    </radialGradient>
    <radialGradient id="spark" cx="44%" cy="42%" r="55%">
      <stop offset="0" stop-color="#fff5aa"/>
      <stop offset=".5" stop-color="#ff9b36"/>
      <stop offset="1" stop-color="#ff4040"/>
    </radialGradient>
  </defs>
  <circle cx="61" cy="72" r="43" fill="url(#bombBody)"/>
  <path fill="#69727b" d="M69 27c9 4 15 10 18 20l-16 8c-3-7-8-11-16-13l14-15Z"/>
  <path fill="none" stroke="#f2c35b" stroke-linecap="round" stroke-width="7" d="M80 34c9-13 23-17 34-11"/>
  <path fill="url(#spark)" d="M110 14 115 4l5 10 9-3-5 9 7 7-10 1-3 10-6-9-10 1 6-8-7-8 9 0Z"/>
  <path fill="#fff" fill-opacity=".24" d="M31 55c5-14 18-23 33-22-15 7-24 19-28 37-5-3-7-8-5-15Z"/>
</svg>
