<svg xmlns="http://www.w3.org/2000/svg" viewBox="0 0 1200 800" preserveAspectRatio="xMidYMid slice">
  <defs>
    <linearGradient id="sky" x1="0" x2="0" y1="0" y2="1">
      <stop stop-color="#254632"/>
      <stop offset=".58" stop-color="#102116"/>
      <stop offset="1" stop-color="#07100a"/>
    </linearGradient>
    <radialGradient id="moon" cx="50%" cy="24%" r="30%">
      <stop stop-color="#fff8cb" stop-opacity=".42"/>
      <stop offset="1" stop-color="#fff8cb" stop-opacity="0"/>
    </radialGradient>
    <linearGradient id="wood" x1="0" x2="1" y1="0" y2="0">
      <stop stop-color="#3d2317"/>
      <stop offset=".5" stop-color="#724328"/>
      <stop offset="1" stop-color="#2f1b12"/>
    </linearGradient>
  </defs>
  <rect width="1200" height="800" fill="url(#sky)"/>
  <rect width="1200" height="800" fill="url(#moon)"/>
  <g opacity=".25" stroke="#a7e35f" stroke-linecap="round">
    <path d="M-40 190C170 130 310 148 480 78"/>
    <path d="M720 116c170 44 280 28 520 98"/>
    <path d="M-30 340c160-28 316-22 472-80"/>
    <path d="M808 294c134-10 245 18 438 72"/>
  </g>
  <g opacity=".38">
    <path fill="#0c170e" d="M0 534c160-55 311-61 482-19 170 42 307 8 457-32 105-28 189-14 261 22v295H0V534Z"/>
    <path fill="#07100a" d="M0 628c217-52 421-35 616 7 217 46 411-12 584-69v234H0V628Z"/>
  </g>
  <g opacity=".55">
    <rect x="0" y="678" width="1200" height="122" fill="url(#wood)"/>
    <path stroke="#140b08" stroke-width="8" d="M0 700h1200M0 742h1200M0 786h1200"/>
    <path stroke="#9c6139" stroke-opacity=".32" stroke-width="3" d="M60 716c140-24 270 22 410-5 161-31 292-11 480 14M14 770c229-34 391 22 576-8 206-33 370 2 576-10"/>
  </g>
</svg>
