<svg xmlns="http://www.w3.org/2000/svg" viewBox="0 0 128 128">
  <defs>
    <radialGradient id="orangeBody" cx="34%" cy="28%" r="72%">
      <stop offset="0" stop-color="#fff4b5"/>
      <stop offset=".22" stop-color="#ffd05e"/>
      <stop offset=".76" stop-color="#f48f22"/>
      <stop offset="1" stop-color="#be5415"/>
    </radialGradient>
  </defs>
  <circle cx="64" cy="65" r="51" fill="url(#orangeBody)"/>
  <path fill="#69aa3c" d="M61 18c8 5 9 12 4 19l-8-3c3-6 2-10-2-14l6-2Z"/>
  <path fill="#95d65b" d="M69 25c9-12 23-10 31-4-8 12-21 14-31 4Z"/>
  <path fill="#fff8cf" fill-opacity=".42" d="M25 53c6-15 22-23 38-20-20 10-29 25-32 48-8-7-10-18-6-28Z"/>
  <g fill="#ffbd43" fill-opacity=".65">
    <circle cx="92" cy="58" r="3"/>
    <circle cx="78" cy="92" r="2.5"/>
    <circle cx="47" cy="98" r="2.4"/>
    <circle cx="35" cy="69" r="2"/>
    <circle cx="56" cy="43" r="2"/>
  </g>
</svg>
